<svg width="466" height="630" viewBox="0 0 466 630" fill="none" xmlns="http://www.w3.org/2000/svg">
<defs>
  <path id="orbit-path" d="M466 177.5C466 427.409 257.365 630 0 630C-257.365 630 -466 427.409 -466 177.5C-466 -72.4088 -257.365 -275 0 -275C257.365 -275 466 -72.4088 466 177.5ZM-330.855 177.5C-330.855 354.933 -182.726 498.77 0 498.77C182.726 498.77 330.855 354.933 330.855 177.5C330.855 0.0673523 182.726 -143.77 0 -143.77C-182.726 -143.77 -330.855 0.0673523 -330.855 177.5Z"/>
  <style>
    .orbit-circle {
      animation: rotateAroundPath 6s linear infinite;
    }
    .orbit-circle-2 {
      animation: rotateAroundPath 6s linear infinite;
      animation-delay: -2s;
    }
    @keyframes rotateAroundPath {
      0% { offset-distance: 0%; }
      100% { offset-distance: 100%; }
    }
  </style>
</defs>
<mask id="path-1-inside-1_20_103" fill="white">
<path d="M466 177.5C466 427.409 257.365 630 0 630C-257.365 630 -466 427.409 -466 177.5C-466 -72.4088 -257.365 -275 0 -275C257.365 -275 466 -72.4088 466 177.5ZM-330.855 177.5C-330.855 354.933 -182.726 498.77 0 498.77C182.726 498.77 330.855 354.933 330.855 177.5C330.855 0.0673523 182.726 -143.77 0 -143.77C-182.726 -143.77 -330.855 0.0673523 -330.855 177.5Z"/>
</mask>
<path d="M466 177.5C466 427.409 257.365 630 0 630C-257.365 630 -466 427.409 -466 177.5C-466 -72.4088 -257.365 -275 0 -275C257.365 -275 466 -72.4088 466 177.5ZM-330.855 177.5C-330.855 354.933 -182.726 498.77 0 498.77C182.726 498.77 330.855 354.933 330.855 177.5C330.855 0.0673523 182.726 -143.77 0 -143.77C-182.726 -143.77 -330.855 0.0673523 -330.855 177.5Z" stroke="#24292B" stroke-width="2" mask="url(#path-1-inside-1_20_103)"/>
<circle cx="0" cy="0" r="4.5" fill="#4000FF" class="orbit-circle" style="offset-path: url(#orbit-path);"/>
<circle cx="0" cy="0" r="4.5" fill="#4000FF" class="orbit-circle-2" style="offset-path: url(#orbit-path);"/>
</svg>
